# xmcd
#
# Track frame offsets:
#	150
#	14106
#	29218
#	43807
#	56603
#	70057
#	80326
#	93251
#	104209
#	116668
#	131854
#	142405
#	156782
#	171206
#	185926
#	200239
#
# Disc length: 2858 seconds
#
# Revision: 0
# Processed by: cddbd v1.5.2PL0 Copyright (c) Steve Scherf et al.
# Submitted via: EasyCDDAExtractor 16.0.6.1
#
DISCID=060b2810
DTITLE=Συλλογικός δίσκος - Τα πρώτα χασάπικα
DYEAR=1990
DGENRE=Ποικίλη
TTITLE0=Μπιθικώτσης Γρηγόρης - Φραγκοσυριανή [Μ. Βαμβακάρη]
TTITLE1=Τσιτσάνης Βασίλης-Λαμπράκη Χ.-Ευσταθίου Δ.-Θεοχάρη Κ. - Δεν ρωτώ ποια 
TTITLE1=είσαι [Β. Τσιτσάνη]
TTITLE2=Ζαμπέτας Γιώργος - Να μ' αξιώσει ο Θεός [Μ. Βαμβακάρη]
TTITLE3=Γαΐτη Λουΐζα - Μιά παρεξήγηση χωρίς εξήγηση [Γρ. Μπιθικώτση]
TTITLE4=Διονυσίου Στράτος - Χθες το βράδυ στην ταβέρνα [Αντ. Ρεπάνη-Π. Καμηλιέ
TTITLE4=ρη]
TTITLE5=Πάνου Πόλυ-Χρηστάκης - Ν' αλλάξεις το βιολί [Γ. Παπαϊωάννου]
TTITLE6=Μενιδιάτης Μιχάλης-Παντελάκη Κ. - Αταξίες μη μού κάνεις [Τ. Σούκα-Μ. Μ
TTITLE6=ενιδιάτη]
TTITLE7=Λαμπράκη Χαρούλα - Αλλοιώτικο παιδί [Τ. Σούκα-Ηρ. Παπασιδέρη]
TTITLE8=Γκρέκα Άντζελα-Μπιθικώτσης Γρηγόρης - Μαύρα μάτια, μαύρα φρύδια [Μ. Βα
TTITLE8=μβακάρη]
TTITLE9=Μπιθικώτσης Γρηγόρης-Λαμπράκη Χ.-Κόκοτας Σ. - Στου Χαροκόπου [Β. Βασιλ
TTITLE9=ειάδου-Πυθαγόρα]
TTITLE10=Διονυσίου Στράτος - Αυτά δεν είναι μάτια [Αντ. Ρεπάνη-Νικ. Καραστατίρ
TTITLE10=η]
TTITLE11=Βαμβακάρης Μάρκος-Παγιουμτζής Στράτος - Καραβοτσακίσματα [Μ. Βαμβακάρ
TTITLE11=η]
TTITLE12=Πάνου Πόλυ - Αραμπατζής [Μ. Βαμβακάρη]
TTITLE13=Μπέλλου Σωτηρία-Τσιτσάνης Βασίλης - Όταν πίνεις στην ταβέρνα [Β. Τσιτ
TTITLE13=σάνη]
TTITLE14=Κηρομύτης Στέλιος - Αραμπάς περνά [Β. Τσιτσάνη]
TTITLE15=Μπλανς Μπέμπα - Το καράβι [Γ. Ζαμπέτα-Χαρ. Βασιλειάδη]
EXTD=
EXTT0=
EXTT1=
EXTT2=
EXTT3=
EXTT4=
EXTT5=
EXTT6=
EXTT7=
EXTT8=
EXTT9=
EXTT10=
EXTT11=
EXTT12=
EXTT13=
EXTT14=
EXTT15=
PLAYORDER=
